<svg id="face-24px" xmlns="http://www.w3.org/2000/svg" width="31.5" height="31.5" viewBox="0 0 31.5 31.5">
  <defs>
    <style>
      .cls-1 {
        fill: none;
      }

      .cls-2 {
        fill: #fff;
      }
    </style>
  </defs>
  <path id="Trazado_154" data-name="Trazado 154" class="cls-1" d="M0,0H31.5V31.5H0Z"/>
  <path id="Trazado_155" data-name="Trazado 155" class="cls-2" d="M12.828,16.438A1.641,1.641,0,1,1,11.188,14.8,1.641,1.641,0,0,1,12.828,16.438ZM19.063,14.8A1.641,1.641,0,1,0,20.7,16.438,1.641,1.641,0,0,0,19.063,14.8Zm9.188.328A13.125,13.125,0,1,1,15.125,2,13.13,13.13,0,0,1,28.25,15.125ZM13.366,4.782a10.486,10.486,0,0,0,8.977,5.093A10.954,10.954,0,0,0,24.1,9.717a10.486,10.486,0,0,0-8.978-5.092A10.954,10.954,0,0,0,13.366,4.782ZM5.176,11.8a10.56,10.56,0,0,0,4.8-5.828A10.56,10.56,0,0,0,5.176,11.8Zm20.449,3.321a10.342,10.342,0,0,0-.433-2.94,13.526,13.526,0,0,1-2.848.315A13.124,13.124,0,0,1,12.159,7.657a13.146,13.146,0,0,1-7.534,7.284.857.857,0,0,1,0,.184,10.5,10.5,0,0,0,21,0Z" transform="translate(0.625 0.625)"/>
</svg>
