<svg xmlns="http://www.w3.org/2000/svg" width="43.898" height="58.563" viewBox="0 0 43.898 58.563">
  <path id="Icon_awesome-file-alt" data-name="Icon awesome-file-alt" d="M25.607,15.556V0H2.744A2.738,2.738,0,0,0,0,2.745V55.818a2.738,2.738,0,0,0,2.744,2.745H41.155A2.738,2.738,0,0,0,43.9,55.818V18.3H28.351A2.752,2.752,0,0,1,25.607,15.556ZM32.924,42.55a1.376,1.376,0,0,1-1.372,1.373H12.346a1.376,1.376,0,0,1-1.372-1.373v-.915a1.376,1.376,0,0,1,1.372-1.373H31.552a1.376,1.376,0,0,1,1.372,1.373Zm0-7.32A1.376,1.376,0,0,1,31.552,36.6H12.346a1.376,1.376,0,0,1-1.372-1.373v-.915a1.376,1.376,0,0,1,1.372-1.373H31.552a1.376,1.376,0,0,1,1.372,1.373Zm0-8.235v.915a1.376,1.376,0,0,1-1.372,1.373H12.346a1.376,1.376,0,0,1-1.372-1.373v-.915a1.376,1.376,0,0,1,1.372-1.373H31.552A1.376,1.376,0,0,1,32.924,26.994ZM43.9,13.943v.7H29.266V0h.7a2.741,2.741,0,0,1,1.943.8L43.1,12.01A2.737,2.737,0,0,1,43.9,13.943Z" fill="#fff"/>
</svg>
