<svg xmlns="http://www.w3.org/2000/svg" width="3568.274" height="4906.376" viewBox="0 0 3568.274 4906.376">
  <path id="Icon_material-loop" data-name="Icon material-loop" d="M1790.137,670.551V1.5L898.068,893.568l892.068,892.068V1116.585c738.187,0,1338.1,599.916,1338.1,1338.1,0,225.247-55.754,439.344-156.112,624.448l325.6,325.6c173.953-274.311,276.541-599.916,276.541-950.053C3574.274,1468.953,2775.873,670.551,1790.137,670.551Zm0,3122.239c-738.187,0-1338.1-599.916-1338.1-1338.1,0-225.247,55.754-439.344,156.112-624.448l-325.6-325.6C108.588,1778.946,6,2104.551,6,2454.688c0,985.736,798.4,1784.137,1784.137,1784.137v669.051l892.068-892.069-892.068-892.068Z" transform="translate(-6 -1.5)"/>
</svg>
