<svg xmlns="http://www.w3.org/2000/svg" viewBox="0 0 452 408.27"><defs><style>.cls-1{fill:#8c0014;}</style></defs><title>Recurso 1</title><g id="Capa_2" data-name="Capa 2"><g id="Capa_1-2" data-name="Capa 1"><g id="pipe"><path id="Trazado_175" data-name="Trazado 175" class="cls-1" d="M0,248.06v120a15,15,0,0,0,15,15h98v-150H15a15,15,0,0,0-15,15H0Z"/><path id="Trazado_176" data-name="Trazado 176" class="cls-1" d="M286,218.2V192.06a15.27,15.27,0,0,0-.2-2.33H166.2a14.83,14.83,0,0,0-.2,2.33v26.16l-21.68,14.84H113v150h33.33a42.41,42.41,0,0,1,17.16,3.4c3.72,1.54,7.82,3.24,12,5,13.34,5.56,27.13,11.32,35.23,14.16a45,45,0,0,0,30.43,0c10.36-3.63,32.13-12.53,47.61-19a42.45,42.45,0,0,1,17.45-3.52H339v-150H307.69Z"/><path id="Trazado_177" data-name="Trazado 177" class="cls-1" d="M437,233.06H339v150h98a15,15,0,0,0,15-15v-120a15,15,0,0,0-15-15h0Z"/><path id="Trazado_178" data-name="Trazado 178" class="cls-1" d="M336,0H116a30,30,0,0,0,0,60H336a30,30,0,0,0,0-60Z"/><path id="Trazado_179" data-name="Trazado 179" class="cls-1" d="M196,90h60v69.73H196Z"/></g></g></g></svg>