<svg xmlns="http://www.w3.org/2000/svg" width="156.658" height="60" viewBox="0 0 156.658 60">
  <g id="Layer_1" transform="translate(-2 -1)">
    <path id="Trazado_18" data-name="Trazado 18" d="M0,60H156.658V0H0Z" transform="translate(2 1)" fill="#8c0014"/>
    <path id="Trazado_19" data-name="Trazado 19" d="M117.5,26.35v1.532a2.707,2.707,0,0,0,2.987,2.47,3.917,3.917,0,0,0,3.884-2.807l5.856,0c-.873,2.713-4.471,5.936-11.088,5.936-8.624,0-11.328-4.672-11.328-8.242,0-3.808,3.124-8.34,11.314-8.34,7.081,0,11.314,4.1,11.314,8.342a8.419,8.419,0,0,1-.06,1.111Zm0-2.575h3.28v-2.1a1.64,1.64,0,0,0-3.28-.009Zm-24.03,5.684H91.134v3.287h15.752V29.458h-2.362V12.746H91.134v3.288h2.331ZM77.237,26.35v1.532a2.71,2.71,0,0,0,2.991,2.47,3.914,3.914,0,0,0,3.882-2.807l5.857,0c-.873,2.713-4.473,5.936-11.088,5.936-8.626,0-11.328-4.672-11.328-8.242,0-3.808,3.121-8.34,11.315-8.34,7.078,0,11.314,4.1,11.314,8.342a8.207,8.207,0,0,1-.061,1.111Zm0-2.575h3.282v-2.1a1.641,1.641,0,0,0-3.282-.009ZM62.38,14.809l-1.524-2.9-4.813,2.481,1.524,2.93Zm1.913,2.9H51.353V21h2.359v8.461H51.353v3.287h15.3V29.458H64.293ZM37.454,12.746H49.23v3.29H46.869V29.458H49.23v3.287H33.924V29.458h2.362v-8.7l-8.7,11.986L18.862,20.759v8.7h2.362v3.287H12.763V29.458H15.1V16.036H12.763v-3.29H26.124l5.679,7.8Z" transform="translate(7.231 6.747)" fill="#fff"/>
  </g>
</svg>
