<?xml version="1.0" encoding="utf-8"?>
<!-- Generator: Adobe Illustrator 24.0.0, SVG Export Plug-In . SVG Version: 6.00 Build 0)  -->
<svg version="1.1" id="Layer_1" xmlns="http://www.w3.org/2000/svg" xmlns:xlink="http://www.w3.org/1999/xlink" x="0px" y="0px"
	 viewBox="0 0 100 19.1" style="enable-background:new 0 0 100 19.1;" xml:space="preserve">
<style type="text/css">
	.st0{fill:#FFFFFF;}
</style>
<g>
	<path class="st0" d="M0.5,7.5c0-3.7,2.9-6.8,6.7-6.8c2,0,3.7,0.8,4.9,2.1l-1.9,1.7C9.5,3.7,8.4,3.2,7.3,3.2C5,3.2,3.2,5.1,3.2,7.5
		s1.8,4.4,4.1,4.4c1.7,0,3.1-0.8,3.4-2.2c0-0.1,0.1-0.2,0.1-0.3H7V7.2h6.6c0,4.9-2.6,7-6.4,7S0.5,11.2,0.5,7.5z"/>
	<path class="st0" d="M24.4,5.2v8.9h-2.5v-1.1c-0.6,0.9-1.9,1.3-2.9,1.3c-2.3,0-4.4-1.8-4.4-4.6S16.8,5,19,5c1,0,2.2,0.4,2.9,1.3
		V5.2H24.4z M21.8,9.6c0-1.4-1.1-2.3-2.3-2.3c-1.3,0-2.3,1-2.3,2.3c0,1.3,1,2.3,2.3,2.3C20.7,11.9,21.8,10.9,21.8,9.6z"/>
	<path class="st0" d="M32.7,5.2l-0.6,2.4c-0.5-0.3-1-0.3-1.3-0.3c-1.3,0-2.2,1.2-2.2,3.7v3.1h-2.5V5.2h2.5v1.9
		c0.5-1.5,1.5-2.1,2.6-2.1C31.7,4.9,32.3,5,32.7,5.2z"/>
	<path class="st0" d="M42.6,5.2v8.9h-2.5v-1.1c-0.6,0.9-1.9,1.3-2.9,1.3c-2.3,0-4.4-1.8-4.4-4.6S35,5,37.2,5c1,0,2.2,0.4,2.9,1.3
		V5.2H42.6z M40,9.6c0-1.4-1.1-2.3-2.3-2.3c-1.3,0-2.3,1-2.3,2.3c0,1.3,1,2.3,2.3,2.3C38.9,11.9,40,10.9,40,9.6z"/>
	<path class="st0" d="M53.7,5.2v7.7c0,3.9-2,5.7-5.1,5.7c-1.9,0-3.6-1.1-4.3-2.7l2.1-0.9c0.4,0.8,1.3,1.4,2.3,1.4
		c1.6,0,2.6-0.9,2.6-3.2V13c-0.6,0.9-1.9,1.3-2.9,1.3c-2.3,0-4.4-1.8-4.4-4.6S46.1,5,48.4,5c1,0,2.2,0.4,2.9,1.3v-1H53.7z M51.2,9.6
		c0-1.4-1.1-2.3-2.3-2.3c-1.3,0-2.3,1-2.3,2.3c0,1.3,1,2.3,2.3,2.3C50.1,11.9,51.2,10.9,51.2,9.6z"/>
	<path class="st0" d="M79.7,5.2v8.9h-2.5v-1.1c-0.6,0.9-1.9,1.3-2.9,1.3c-2.3,0-4.4-1.8-4.4-4.6S72,5,74.3,5c1,0,2.2,0.4,2.9,1.3
		V5.2H79.7z M77.1,9.6c0-1.4-1.1-2.3-2.3-2.3c-1.3,0-2.3,1-2.3,2.3c0,1.3,1,2.3,2.3,2.3C76,11.9,77.1,10.9,77.1,9.6z"/>
	<path class="st0" d="M91.2,9.6c0,2.9-2.1,4.6-4.4,4.6c-1,0-2.2-0.4-2.9-1.3v1.1h-2.5V0.4h2.5v5.8C84.6,5.3,85.8,5,86.8,5
		C89.1,5,91.2,6.7,91.2,9.6z M88.6,9.6c0-1.3-1-2.3-2.3-2.3c-1.2,0-2.3,0.9-2.3,2.3c0,1.4,1.1,2.3,2.3,2.3
		C87.6,11.9,88.6,10.9,88.6,9.6z"/>
	<path class="st0" d="M92,11.2h2.3c0,0.5,0.4,1.1,1.3,1.1c0.7,0,1.3-0.3,1.3-0.8c0-0.4-0.3-0.6-1-0.7l-1.2-0.3
		c-2.3-0.6-2.6-1.9-2.6-2.8c0-1.4,1.4-2.7,3.5-2.7c1.6,0,3.5,0.8,3.5,2.9h-2.4c0-0.6-0.5-0.9-1.1-0.9c-0.6,0-1,0.3-1,0.7
		c0,0.4,0.4,0.6,0.9,0.8L97,8.8c2.1,0.6,2.4,1.9,2.4,2.6c0,1.9-1.9,2.8-3.7,2.8C93.8,14.2,92,13.2,92,11.2z"/>
	<g>
		<polygon class="st0" points="66.2,14.1 68.7,14.1 68.7,8.8 66.2,11.5 		"/>
		<polygon class="st0" points="66.2,0.4 66.2,6 68.7,8.8 68.7,0.4 		"/>
	</g>
	<path class="st0" d="M64.3,10.4h-6.7c0.3,1,1.1,1.6,2.3,1.6c0.9,0,1.8-0.4,2.3-1l1.5,1.5c-0.8,1.1-2.4,1.7-4,1.7
		c-2.7,0-4.7-1.9-4.7-4.6c0-2.9,2.2-4.7,4.7-4.7c2.5,0,4.6,1.8,4.6,4.5C64.3,9.7,64.3,10,64.3,10.4z M61.8,8.8c-0.1-1-1-1.7-2.1-1.7
		c-1,0-1.9,0.5-2.2,1.7H61.8z"/>
</g>
</svg>
